<svg xmlns="http://www.w3.org/2000/svg" viewBox="0 0 800 500">
  <defs>
    <linearGradient id="bg" x1="0%" y1="0%" x2="100%" y2="100%">
      <stop offset="0%" stop-color="#0c0c10"/>
      <stop offset="100%" stop-color="#1a1a2e"/>
    </linearGradient>
    <linearGradient id="accent" x1="0%" y1="0%" x2="100%" y2="0%">
      <stop offset="0%" stop-color="#e11d48"/>
      <stop offset="100%" stop-color="#f43f5e"/>
    </linearGradient>
  </defs>
  <rect width="800" height="500" fill="url(#bg)"/>
  <!-- Navbar -->
  <rect x="0" y="0" width="800" height="50" fill="#0c0c10" opacity="0.8"/>
  <rect x="40" y="18" width="80" height="14" rx="4" fill="url(#accent)" opacity="0.3"/>
  <rect x="580" y="18" width="40" height="14" rx="4" fill="#ffffff" opacity="0.08"/>
  <rect x="630" y="18" width="40" height="14" rx="4" fill="#ffffff" opacity="0.08"/>
  <rect x="680" y="18" width="40" height="14" rx="4" fill="url(#accent)" opacity="0.2"/>
  <!-- Products grid -->
  <rect x="40" y="80" width="170" height="180" rx="12" fill="#ffffff" opacity="0.04"/>
  <rect x="55" y="95" width="140" height="100" rx="8" fill="#e11d48" opacity="0.1"/>
  <rect x="55" y="210" width="80" height="8" rx="3" fill="#ffffff" opacity="0.1"/>
  <rect x="55" y="225" width="60" height="6" rx="3" fill="#ffffff" opacity="0.05"/>
  <rect x="220" y="80" width="170" height="180" rx="12" fill="#ffffff" opacity="0.04"/>
  <rect x="235" y="95" width="140" height="100" rx="8" fill="#e11d48" opacity="0.1"/>
  <rect x="235" y="210" width="80" height="8" rx="3" fill="#ffffff" opacity="0.1"/>
  <rect x="235" y="225" width="60" height="6" rx="3" fill="#ffffff" opacity="0.05"/>
  <rect x="400" y="80" width="170" height="180" rx="12" fill="#ffffff" opacity="0.04"/>
  <rect x="415" y="95" width="140" height="100" rx="8" fill="#e11d48" opacity="0.1"/>
  <rect x="415" y="210" width="80" height="8" rx="3" fill="#ffffff" opacity="0.1"/>
  <rect x="415" y="225" width="60" height="6" rx="3" fill="#ffffff" opacity="0.05"/>
  <rect x="580" y="80" width="170" height="180" rx="12" fill="#ffffff" opacity="0.04"/>
  <rect x="595" y="95" width="140" height="100" rx="8" fill="#e11d48" opacity="0.1"/>
  <rect x="595" y="210" width="80" height="8" rx="3" fill="#ffffff" opacity="0.1"/>
  <rect x="595" y="225" width="60" height="6" rx="3" fill="#ffffff" opacity="0.05"/>
  <!-- Title -->
  <text x="400" y="320" font-family="Arial" font-size="32" font-weight="bold" fill="#e11d48" text-anchor="middle" opacity="0.4">BxZar</text>
  <text x="400" y="345" font-family="Arial" font-size="14" fill="#ffffff" text-anchor="middle" opacity="0.15">E-Commerce Store</text>
</svg>
